<svg width="24" height="24" viewBox="0 0 24 24" fill="none" xmlns="http://www.w3.org/2000/svg">
<g id="Instrumental Kirtan Icon">
<!-- Tabla/drum -->
<ellipse cx="8" cy="14" rx="3" ry="2" stroke="currentColor" stroke-width="2" fill="none"/>
<ellipse cx="8" cy="13" rx="3" ry="1" stroke="currentColor" stroke-width="1" fill="none"/>
<!-- Harmonium keys -->
<rect x="14" y="8" width="6" height="8" stroke="currentColor" stroke-width="2" rx="1"/>
<path d="M16 8V16" stroke="currentColor" stroke-width="1"/>
<path d="M18 8V16" stroke="currentColor" stroke-width="1"/>
<!-- Hands playing -->
<circle cx="6" cy="11" r="1" stroke="currentColor" stroke-width="1" fill="none"/>
<circle cx="10" cy="11" r="1" stroke="currentColor" stroke-width="1" fill="none"/>
<!-- Musical notes from instruments -->
<circle cx="12" cy="6" r="0.5" fill="currentColor"/>
<path d="M12 6L13 4" stroke="currentColor" stroke-width="1" stroke-linecap="round"/>
<circle cx="16" cy="5" r="0.5" fill="currentColor"/>
<path d="M16 5L17 3" stroke="currentColor" stroke-width="1" stroke-linecap="round"/>
<!-- Sound waves -->
<path d="M4 8C4 8 5 7 5 8C5 9 4 8 4 8" stroke="currentColor" stroke-width="1" stroke-linecap="round"/>
<path d="M22 12C22 12 21 11 21 12C21 13 22 12 22 12" stroke="currentColor" stroke-width="1" stroke-linecap="round"/>
<!-- Sacred OM emanating -->
<circle cx="12" cy="19" r="2" stroke="currentColor" stroke-width="1" fill="none" opacity="0.5"/>
</g>
</svg> 