<svg width="24" height="24" viewBox="0 0 24 24" fill="none" xmlns="http://www.w3.org/2000/svg">
<g id="Loving Kindness Meditation Icon">
<!-- Central meditation figure -->
<circle cx="12" cy="7" r="2" stroke="currentColor" stroke-width="2" fill="none"/>
<path d="M12 9V14" stroke="currentColor" stroke-width="2" stroke-linecap="round"/>
<path d="M8 14C8 14 10 16 12 16C14 16 16 14 16 14" stroke="currentColor" stroke-width="2" stroke-linecap="round"/>
<!-- Heart at center of chest -->
<path d="M12 11C12 11 10.5 10 9.5 10C8.5 10 8 10.5 8 11.5C8 12.5 9.5 14 12 15.5C14.5 14 16 12.5 16 11.5C16 10.5 15.5 10 14.5 10C13.5 10 12 11 12 11Z" fill="currentColor"/>
<!-- Radiating love/compassion -->
<circle cx="12" cy="12" r="7" stroke="currentColor" stroke-width="1" fill="none" opacity="0.4"/>
<circle cx="12" cy="12" r="9" stroke="currentColor" stroke-width="1" fill="none" opacity="0.2"/>
</g>
</svg> 