<svg width="24" height="24" viewBox="0 0 24 24" fill="none" xmlns="http://www.w3.org/2000/svg">
<g id="Scripture Reading Icon">
<!-- Open book -->
<path d="M4 6C4 4.89543 4.89543 4 6 4H12H18C19.1046 4 20 4.89543 20 6V18C20 19.1046 19.1046 20 18 20H12H6C4.89543 20 4 19.1046 4 18V6Z" stroke="currentColor" stroke-width="2"/>
<!-- Book spine/center -->
<path d="M12 4V20" stroke="currentColor" stroke-width="2"/>
<!-- Text lines on pages -->
<path d="M6 8H10" stroke="currentColor" stroke-width="1.5" stroke-linecap="round"/>
<path d="M6 10H10" stroke="currentColor" stroke-width="1.5" stroke-linecap="round"/>
<path d="M6 12H9" stroke="currentColor" stroke-width="1.5" stroke-linecap="round"/>
<path d="M14 8H18" stroke="currentColor" stroke-width="1.5" stroke-linecap="round"/>
<path d="M14 10H18" stroke="currentColor" stroke-width="1.5" stroke-linecap="round"/>
<path d="M14 12H17" stroke="currentColor" stroke-width="1.5" stroke-linecap="round"/>
<!-- Eyes reading -->
<circle cx="8" cy="16" r="1" fill="currentColor"/>
<circle cx="16" cy="16" r="1" fill="currentColor"/>
</g>
</svg> 