<svg width="24" height="24" viewBox="0 0 24 24" fill="none" xmlns="http://www.w3.org/2000/svg">
<g id="Scripture Listening Icon">
<!-- Head silhouette -->
<circle cx="12" cy="8" r="4" stroke="currentColor" stroke-width="2" fill="none"/>
<!-- Headphones -->
<path d="M7 8C7 8 6 8 6 10V14C6 15 7 15 7 15" stroke="currentColor" stroke-width="2" stroke-linecap="round"/>
<path d="M17 8C17 8 18 8 18 10V14C18 15 17 15 17 15" stroke="currentColor" stroke-width="2" stroke-linecap="round"/>
<!-- Headphone band -->
<path d="M7 8C7 5 9 3 12 3C15 3 17 5 17 8" stroke="currentColor" stroke-width="2" stroke-linecap="round"/>
<!-- Audio waves -->
<path d="M2 12C2 12 3 11 3 12C3 13 2 12 2 12" stroke="currentColor" stroke-width="2" stroke-linecap="round"/>
<path d="M22 12C22 12 21 11 21 12C21 13 22 12 22 12" stroke="currentColor" stroke-width="2" stroke-linecap="round"/>
<path d="M4 10C4 10 5 9 5 10C5 11 4 10 4 10" stroke="currentColor" stroke-width="1.5" stroke-linecap="round"/>
<path d="M20 10C20 10 19 9 19 10C19 11 20 10 20 10" stroke="currentColor" stroke-width="1.5" stroke-linecap="round"/>
<!-- Sacred book/scripture source -->
<rect x="10" y="16" width="4" height="3" stroke="currentColor" stroke-width="1" rx="0.5"/>
</g>
</svg> 