<svg width="24" height="24" viewBox="0 0 24 24" fill="none" xmlns="http://www.w3.org/2000/svg">
<g id="Water Fasting Icon">
<!-- Water glass -->
<path d="M8 6L9 18C9 19 10 20 11 20H13C14 20 15 19 15 18L16 6" stroke="currentColor" stroke-width="2" stroke-linecap="round" stroke-linejoin="round"/>
<path d="M7 6H17" stroke="currentColor" stroke-width="2" stroke-linecap="round"/>
<!-- Water level -->
<path d="M9 12C9 12 10 10 12 10C14 10 15 12 15 12C15 14 13.5 15 12 15C10.5 15 9 14 9 12Z" fill="currentColor" opacity="0.3"/>
<!-- Water drops -->
<circle cx="12" cy="8" r="0.5" fill="currentColor"/>
<circle cx="10" cy="9" r="0.5" fill="currentColor"/>
<circle cx="14" cy="9" r="0.5" fill="currentColor"/>
<!-- Spiritual purification rays -->
<path d="M12 2L12 4" stroke="currentColor" stroke-width="1.5" stroke-linecap="round"/>
<path d="M18 6L16.5 7.5" stroke="currentColor" stroke-width="1.5" stroke-linecap="round"/>
<path d="M6 6L7.5 7.5" stroke="currentColor" stroke-width="1.5" stroke-linecap="round"/>
</g>
</svg> 